<?xml version="1.0" encoding="iso-8859-1"?>
<!-- Generator: Adobe Illustrator 16.0.0, SVG Export Plug-In . SVG Version: 6.00 Build 0)  -->
<!DOCTYPE svg PUBLIC "-//W3C//DTD SVG 1.1//EN" "http://www.w3.org/Graphics/SVG/1.1/DTD/svg11.dtd">
<svg version="1.1" id="Capa_1" xmlns="http://www.w3.org/2000/svg" xmlns:xlink="http://www.w3.org/1999/xlink" x="0px" y="0px"
	 width="46px" height="46px" viewBox="0 0 46 46" style="enable-background:new 0 0 46 46;" xml:space="preserve">
<g>
	<g id="Star_1_">
		<g>
			<path d="M23,0C10.298,0,0,10.298,0,23s10.298,23,23,23s23-10.298,23-23S35.702,0,23,0z M23,42C12.507,42,4,33.493,4,23
				S12.507,4,23,4s19,8.507,19,19S33.493,42,23,42z M30.412,18.979l-3.816,0.002L25,15.583c-0.754-0.752-0.672-0.758-1.5-1.583h-1
				c-0.828,0.825-0.761,0.846-1.5,1.583l-1.596,3.397l-3.816-0.002c-0.877,0-1.588,0.669-1.588,1.494
				c0,0.545,2.047,2.752,3.694,4.195l-0.882,3.304c-0.439,0.758-0.213,1.705,0.505,2.117l0.865,0.498
				c0.718,0.413,1.173,0.02,2.094-0.623l3.128-2.025l2.912,1.961c0.734,0.537,1.297,1.039,1.976,0.625l0.817-0.5
				c0.678-0.414,0.891-1.366,0.477-2.127l-0.873-3.596C30.271,22.877,32,20.974,32,20.473C32,19.647,31.289,18.979,30.412,18.979z"
				/>
		</g>
	</g>
</g>
<g>
</g>
<g>
</g>
<g>
</g>
<g>
</g>
<g>
</g>
<g>
</g>
<g>
</g>
<g>
</g>
<g>
</g>
<g>
</g>
<g>
</g>
<g>
</g>
<g>
</g>
<g>
</g>
<g>
</g>
</svg>
